<?xml version="1.0" encoding="UTF-8" standalone="no"?>
<!-- Created with Inkscape (http://www.inkscape.org/) -->

<svg
   xmlns:dc="http://purl.org/dc/elements/1.1/"
   xmlns:cc="http://creativecommons.org/ns#"
   xmlns:rdf="http://www.w3.org/1999/02/22-rdf-syntax-ns#"
   xmlns:svg="http://www.w3.org/2000/svg"
   xmlns="http://www.w3.org/2000/svg"
   xmlns:xlink="http://www.w3.org/1999/xlink"
   version="1.1"
   width="1346"
   height="756.15625"
   id="svg2">
  <defs
     id="defs4">
    <linearGradient
       id="linearGradient4357">
      <stop
         id="stop4359"
         style="stop-color:#000000;stop-opacity:1"
         offset="0" />
      <stop
         id="stop4361"
         style="stop-color:#a2a2a2;stop-opacity:1"
         offset="1" />
    </linearGradient>
    <linearGradient
       id="linearGradient3914">
      <stop
         id="stop3916"
         style="stop-color:#e2e321;stop-opacity:1"
         offset="0" />
      <stop
         id="stop3918"
         style="stop-color:#ffffff;stop-opacity:1"
         offset="1" />
    </linearGradient>
    <linearGradient
       x1="1410"
       y1="736.42865"
       x2="1410"
       y2="1046.2888"
       id="linearGradient4232"
       xlink:href="#linearGradient3914"
       gradientUnits="userSpaceOnUse" />
 
    <radialGradient
       cx="729.75555"
       cy="472.52185"
       r="470.21091"
       fx="729.75555"
       fy="472.52185"
       id="radialGradient4365"
       xlink:href="#linearGradient4357"
       gradientUnits="userSpaceOnUse"
       gradientTransform="matrix(1.0187322,2.2293685e-5,0,0.81964522,-13.551295,82.955573)" />
  </defs>
  <metadata
     id="metadata7">
    <rdf:RDF>
      <cc:Work
         rdf:about="">
        <dc:format>image/svg+xml</dc:format>
        <dc:type
           rdf:resource="http://purl.org/dc/dcmitype/StillImage" />
        <dc:title></dc:title>
      </cc:Work>
    </rdf:RDF>
  </metadata>
  <style type="text/css"><![CDATA[
  	.block{
	  	fill-opacity:1;
	  	stroke:#000000;
	  	stroke-width:2;
	  	stroke-linecap:round;
	  	stroke-linejoin:round;
	  	stroke-miterlimit:4;
	  	stroke-opacity:1;
	  	stroke-dasharray:none;
  	}
  ]]></style>
  <g
     transform="translate(-64,-296.21875)"
     id="layer1">
    <g
       style="fill:url(#linearGradient4232);fill-opacity:1">
      <rect
         width="64"
         height="64"
         rx="8"
         ry="8"
         x="65"
         y="731.36218"
         class="block"
 />
      <rect
         width="64"
         height="64"
         rx="8"
         ry="8"
         x="129"
         y="731.36218"
         class="block"
  />
      <rect
         width="64"
         height="64"
         rx="8"
         ry="8"
         x="193"
         y="731.36218"
         class="block"
       />
      <rect
         width="64"
         height="64"
         rx="8"
         ry="8"
         x="129"
         y="795.36218"
         class="block"
   />
      <rect
         width="64"
         height="64"
         rx="8"
         ry="8"
         x="129"
         y="859.36218"
         class="block"
        />
      <rect
         width="64"
         height="64"
         rx="8"
         ry="8"
         x="129"
         y="923.36218"
         class="block"
   />
      <rect
         width="64"
         height="64"
         rx="8"
         ry="8"
         x="321"
         y="923.36218"
         class="block"
         />
      <rect
         width="64"
         height="64"
         rx="8"
         ry="8"
         x="385"
         y="987.36218"
         class="block"
     />
      <rect
         width="64"
         height="64"
         rx="8"
         ry="8"
         x="449"
         y="987.36218"
         class="block"
         />
      <rect
         width="64"
         height="64"
         rx="8"
         ry="8"
         x="321"
         y="795.36218"
         class="block"
       />
      <rect
         width="64"
         height="64"
         rx="8"
         ry="8"
         x="321"
         y="987.36218"
         class="block"
 />
      <rect
         width="64"
         height="64"
         rx="8"
         ry="8"
         x="385"
         y="731.36218"
         class="block"
 />
      <rect
         width="64"
         height="64"
         rx="8"
         ry="8"
         x="321"
         y="731.36218"
         class="block"
 />
      <rect
         width="64"
         height="64"
         rx="8"
         ry="8"
         x="449"
         y="731.36218"
         class="block"
 />
      <rect
         width="64"
         height="64"
         rx="8"
         ry="8"
         x="385"
         y="859.36218"
         class="block"
 />
      <rect
         width="64"
         height="64"
         rx="8"
         ry="8"
         x="577"
         y="731.36218"
         class="block"
          />
      <rect
         width="64"
         height="64"
         rx="8"
         ry="8"
         x="641"
         y="731.36218"
         class="block"
 />
      <rect
         width="64"
         height="64"
         rx="8"
         ry="8"
         x="705"
         y="731.36218"
         class="block"
 />
      <rect
         width="64"
         height="64"
         rx="8"
         ry="8"
         x="641"
         y="795.36218"
         class="block"         
 />
      <rect
         width="64"
         height="64"
         rx="8"
         ry="8"
         x="641"
         y="859.36218"
         class="block"
      />
      <rect
         width="64"
         height="64"
         rx="8"
         ry="8"
         x="641"
         y="923.36218"
         class="block"
      />
      <rect
         width="64"
         height="64"
         rx="8"
         ry="8"
         x="833"
         y="859.36218"
         class="block"
     />
      <rect
         width="64"
         height="64"
         rx="8"
         ry="8"
         x="897"
         y="859.36218"
         class="block"
      />
      <rect
         width="64"
         height="64"
         rx="8"
         ry="8"
         x="961"
         y="923.36218"
         class="block"
     />
      <rect
         width="64"
         height="64"
         rx="8"
         ry="8"
         x="833"
         y="795.36218"
         class="block"
     />
      <rect
         width="64"
         height="64"
         rx="8"
         ry="8"
         x="833"
         y="923.36218"
         class="block"
    />
      <rect
         width="64"
         height="64"
         rx="8"
         ry="8"
         x="897"
         y="731.36218"
         class="block"
        />
      <rect
         width="64"
         height="64"
         rx="8"
         ry="8"
         x="833"
         y="731.36218"
         class="block"
    />
      <rect
         width="64"
         height="64"
         rx="8"
         ry="8"
         x="961"
         y="731.36218"
         class="block"
         />
      <rect
         width="64"
         height="64"
         rx="8"
         ry="8"
         x="961"
         y="795.36218"
         class="block"
     />
      <rect
         width="64"
         height="64"
         rx="8"
         ry="8"
         x="1089"
         y="731.36218"
         class="block"
         />
      <rect
         width="64"
         height="64"
         rx="8"
         ry="8"
         x="1089"
         y="795.36218"
         class="block"
       />
      <rect
         width="64"
         height="64"
         rx="8"
         ry="8"
         x="1089"
         y="859.36218"
         class="block"
     />
      <rect
         width="64"
         height="64"
         rx="8"
         ry="8"
         x="1089"
         y="923.36218"
         class="block"
     />
      <rect
         width="64"
         height="64"
         rx="8"
         ry="8"
         x="1217"
         y="987.36218"
         class="block"
          />
      <rect
         width="64"
         height="64"
         rx="8"
         ry="8"
         x="1281"
         y="859.36218"
         class="block"
          />
      <rect
         width="64"
         height="64"
         rx="8"
         ry="8"
         x="1345"
         y="923.36218"
         class="block"
         />
      <rect
         width="64"
         height="64"
         rx="8"
         ry="8"
         x="1217"
         y="795.36218"
         class="block"
       />
      <rect
         width="64"
         height="64"
         rx="8"
         ry="8"
         x="1281"
         y="987.36218"
         class="block"
    />
      <rect
         width="64"
         height="64"
         rx="8"
         ry="8"
         x="1281"
         y="731.36218"
         class="block"
         />
      <rect
         width="64"
         height="64"
         rx="8"
         ry="8"
         x="1217"
         y="731.36218"
         class="block"
 />
      <rect
         width="64"
         height="64"
         rx="8"
         ry="8"
         x="1345"
         y="731.36218"
         class="block"
 />
      <rect
         width="64"
         height="64"
         rx="8"
         ry="8"
         x="1345"
         y="859.36218"
         class="block"
       />
      <rect
         width="64"
         height="64"
         rx="8"
         ry="8"
         x="1089"
         y="987.36218"
         class="block"
      />
      <rect
         width="64"
         height="64"
         rx="8"
         ry="8"
         x="961"
         y="987.36218"
         class="block"
 />
      <rect
         width="64"
         height="64"
         rx="8"
         ry="8"
         x="833"
         y="987.36218"
         class="block"
       />
      <rect
         width="64"
         height="64"
         rx="8"
         ry="8"
         x="641"
         y="987.36218"
         class="block"
      />
      <rect
         width="64"
         height="64"
         rx="8"
         ry="8"
         x="129"
         y="987.36218"
         class="block"
      />
      <rect
         width="64"
         height="64"
         rx="8"
         ry="8"
         x="321"
         y="859.36218"
         class="block"
     />
      <rect
         width="64"
         height="64"
         rx="8"
         ry="8"
         x="1217"
         y="859.36218"
         class="block"
    />
      <rect
         width="64"
         height="64"
         rx="8"
         ry="8"
         x="1345"
         y="987.36218"
         class="block"/>
    </g>
    <g
       id="g4351"
       style="fill:url(#radialGradient4365);fill-opacity:1">
      <g
         transform="translate(2.0000046e-5,0)"
         id="text3089"
         style="font-size:400px;font-style:normal;font-variant:normal;font-weight:normal;font-stretch:normal;line-height:125%;letter-spacing:0px;word-spacing:0px;fill:url(#radialGradient4365);fill-opacity:1;stroke:#ffff00;stroke-width:8;stroke-miterlimit:4;stroke-dasharray:none;font-family:Anime Ace;-inkscape-font-specification:Anime Ace">
        <path
           d="m 358.67969,637.32495 c -17.70843,0 -30.85946,-2.73437 -39.45313,-8.20312 -13.02089,-8.33332 -24.349,-20.44268 -33.98437,-36.32813 -9.63545,-16.14577 -14.45315,-31.77076 -14.45313,-46.875 -2e-5,-11.97906 3.25519,-17.96864 9.76563,-17.96875 6.51038,1.1e-4 12.49995,3.77615 17.96875,11.32813 2.08328,4.16676 5.98953,10.41675 11.71875,18.75 19.27075,22.6563 47.91656,33.98442 85.9375,33.98437 24.21858,5e-5 46.61439,-4.94786 67.1875,-14.84375 23.17684,-11.45826 38.80183,-27.47387 46.875,-48.04687 2.86432,-7.03114 4.29661,-13.02072 4.29687,-17.96875 -2.6e-4,-7.81237 -4.16692,-13.0207 -12.5,-15.625 -22.65648,-7.29152 -54.6877,-12.23943 -96.09375,-14.84375 -33.07304,-1.82276 -66.14592,-3.51547 -99.21875,-5.07813 -17.44795,-1.30192 -27.47399,-7.81233 -30.07812,-19.53125 -1.0417,-4.68731 -1.56253,-9.63522 -1.5625,-14.84375 -3e-5,-3.38522 0.3906,-6.11959 1.17187,-8.20312 6.24997,-15.8852 17.05725,-32.68206 32.42188,-50.39063 13.54159,-15.36431 28.38533,-28.90596 44.53125,-40.625 38.28111,-27.86426 84.11439,-41.79654 137.5,-41.79687 7.29142,3.3e-4 13.02058,0.91179 17.1875,2.73437 4.42682,1.82325 6.77057,6.64095 7.03125,14.45313 0.26015,5.20864 1.56223,13.02114 3.90625,23.4375 2.34348,10.41695 3.51535,17.31798 3.51562,20.70312 -2.7e-4,5.46902 -4.55756,11.06797 -13.67187,16.79688 -8.85442,5.72942 -16.14608,8.594 -21.875,8.59375 -4.1669,2.5e-4 -7.81273,-4.29662 -10.9375,-12.89063 -0.26065,-0.26015 -2.08356,-6.37994 -5.46875,-18.35937 -3.38564,-0.26014 -6.64084,-0.39035 -9.76563,-0.39063 -50.00016,2.8e-4 -89.32304,18.35964 -117.96875,55.07813 -4.948,6.25022 -7.42196,10.54709 -7.42187,12.89062 -9e-5,2.08355 3.51553,3.51584 10.54687,4.29688 4.94782,0.26062 11.58844,0.26062 19.92188,0 11.97904,-0.26021 16.53632,-0.39042 13.67187,-0.39063 27.60401,2.1e-4 54.68732,1.4325 81.25,4.29688 17.18727,1.5627 34.24455,3.1252 51.17188,4.6875 21.09346,2.08353 37.76011,4.8179 50,8.20312 8.85384,2.34394 13.28092,12.36997 13.28125,30.07813 -3.3e-4,6.51057 -0.65137,11.97931 -1.95313,16.40625 -12.76072,42.1876 -40.8857,77.47402 -84.375,105.85937 -41.40645,27.08335 -84.76578,40.625 -130.07812,40.625"
           id="path4235"
           style="fill:url(#radialGradient4365);fill-opacity:1;stroke:#ffff00;stroke-width:8;stroke-miterlimit:4;stroke-dasharray:none" />
        <path
           d="m 727.82031,631.46558 c -16.9272,0 -26.95323,-4.03645 -30.07812,-12.10938 -5.98968,-14.5833 -21.48446,-63.15096 -46.48438,-145.70312 -26.0417,-85.93725 -39.06252,-132.81221 -39.0625,-140.625 -2e-5,-12.7601 9.24477,-19.1403 27.73438,-19.14063 7.29161,3.3e-4 12.10931,3.51595 14.45312,10.54688 1.82286,5.46905 3.51556,12.63051 5.07813,21.48437 2.08326,13.54195 3.25514,20.96381 3.51562,22.26563 14.06242,69.01061 32.8124,132.2918 56.25,189.84375 10.15612,-30.20823 21.87485,-63.41132 35.15625,-99.60938 8.07275,-24.47896 21.6144,-60.41643 40.625,-107.8125 5.20813,-10.9372 13.54145,-16.40595 25,-16.40625 16.92684,3e-4 25.39038,3.77634 25.39063,11.32813 -2.5e-4,2.86487 -3.25546,10.80757 -9.76563,23.82812 -4.42732,8.59401 -8.72419,17.05754 -12.89062,25.39063 -25.26062,54.9481 -44.92206,115.88554 -58.98438,182.8125 -1.30225,9.63546 -3.90641,23.69795 -7.8125,42.1875 -2.60432,7.81251 -11.97931,11.71875 -28.125,11.71875"
           id="path4237"
           style="fill:url(#radialGradient4365);fill-opacity:1;stroke:#ffff00;stroke-width:8;stroke-miterlimit:4;stroke-dasharray:none" />
        <path
           d="m 983.28906,637.71558 c -32.29175,0 -57.42194,-11.0677 -75.39062,-33.20313 -16.40628,-20.57286 -24.6094,-47.39575 -24.60938,-80.46875 -2e-5,-59.89566 23.95829,-110.80707 71.875,-152.73437 46.09364,-40.6247 99.60914,-60.93718 160.54684,-60.9375 11.7185,3.2e-4 18.88,1.95345 21.4844,5.85937 1.8227,2.60449 2.7341,9.89615 2.7344,21.875 -3e-4,6.51071 1.432,14.84404 4.2969,25 3.1247,10.15652 4.6872,16.79713 4.6875,19.92188 -3e-4,5.20858 -4.4274,10.80753 -13.2813,16.79687 -8.594,5.7294 -15.6252,8.59398 -21.0937,8.59375 -5.2086,2.3e-4 -9.5055,-5.85914 -12.8907,-17.57812 -2.0835,-8.33308 -4.1669,-16.66641 -6.25,-25 -52.3439,8.07318 -93.4897,26.56274 -123.43746,55.46875 -14.32301,13.80228 -26.04175,28.77623 -35.15625,44.92187 -11.19798,19.27099 -16.79693,37.36993 -16.79688,54.29688 -5e-5,19.79176 7.1614,35.67716 21.48438,47.65625 13.28116,11.7188 29.94781,17.57817 50,17.57812 23.69781,5e-5 51.69251,-6.38015 83.98441,-19.14062 32.2914,-12.76034 56.7705,-27.21345 73.4375,-43.35938 6.2497,-6.24988 9.3747,-11.328 9.375,-15.23437 -3e-4,-9.11445 -10.9378,-13.67174 -32.8125,-13.67188 -35.4169,1.4e-4 -83.3335,7.1616 -143.75004,21.48438 -6.51053,1.56262 -11.32823,2.34387 -14.45312,2.34375 -7.55218,1.2e-4 -11.32822,-3.77592 -11.32813,-11.32813 -9e-5,-6.24986 3.12491,-13.54152 9.375,-21.875 6.51031,-8.33317 12.7603,-13.80192 18.75,-16.40625 11.71862,-4.94774 32.94259,-9.1144 63.67189,-12.5 25.781,-2.8644 47.656,-4.29669 65.625,-4.29687 59.8955,1.8e-4 89.8434,12.63038 89.8437,37.89062 -3e-4,20.05221 -17.1878,44.01052 -51.5625,71.875 -62.5002,50.78128 -118.6199,76.17188 -168.35934,76.17188"
           id="path4239"
           style="fill:url(#radialGradient4365);fill-opacity:1;stroke:#ffff00;stroke-width:8;stroke-miterlimit:4;stroke-dasharray:none" />
      </g>
    </g>
  </g>
</svg>
