<?xml version="1.0" encoding="UTF-8" standalone="no"?>
<!-- Created with Inkscape (http://www.inkscape.org/) -->

<svg
	xmlns:dc="http://purl.org/dc/elements/1.1/"
	xmlns:cc="http://creativecommons.org/ns#"
	xmlns:rdf="http://www.w3.org/1999/02/22-rdf-syntax-ns#"
	xmlns:svg="http://www.w3.org/2000/svg"
	xmlns="http://www.w3.org/2000/svg"
	xmlns:xlink="http://www.w3.org/1999/xlink"
	version="1.1"
	viewBox="0 0 1920 1080"
	id="Svg"
>
	<defs>
		<rect 
			width="64"
			height="64"
			rx="8"
			ry="8"
			x="-32"
			y="-32"
			id="RedRect"
			style="fill:#f00;fill-opacity:1;stroke:#800000;stroke-width:4;" />
		<rect 
			width="64"
			height="64"
			rx="8"
			ry="8"
			x="-32"
			y="-32"
			id="GreenRect"
			style="fill:#0f0;fill-opacity:1;stroke:#008000;stroke-width:4;" />
		<rect 
			width="64"
			height="64"
			rx="8"
			ry="8"
			x="-32"
			y="-32"
			id="BlueRect"
			style="fill:#00f;fill-opacity:1;stroke:#000080;stroke-width:4;" />
		<rect 
			width="64"
			height="64"
			rx="8"
			ry="8"
			x="-32"
			y="-32"
			id="YellowRect"
			style="fill:#808000;fill-opacity:1;stroke:#404000;stroke-width:4;" />
		<rect 
			width="64"
			height="64"
			rx="8"
			ry="8"
			x="-32"
			y="-32"
			id="CyanRect"
			style="fill:#008080;fill-opacity:1;stroke:#004040;stroke-width:4;" />
		<rect 
			width="64"
			height="64"
			rx="8"
			ry="8"
			x="-32"
			y="-32"
			id="MagentaRect"
			style="fill:#800080;fill-opacity:1;stroke:#400040;stroke-width:4;" />
		<rect 
			width="64"
			height="64"
			rx="8"
			ry="8"
			x="-32"
			y="-32"
			id="GrayRect"
			style="fill:#555;fill-opacity:1;stroke:#2a2a2a;stroke-width:4;" />
		

		<rect
			width="64"
			height="1080"
			x="-32"
			y="0"
			id="Target"
			style="fill:url(#TargetGradient);fill-opacity:1;stroke:none" />
	</defs>
	<rect width="1920" height="1080"
		  style="fill:rgb(0,0,255);stroke-width:1;stroke:rgb(0,0,0)"/>
	
	<rect  id="PlayArea"
		   width="10"
		   height="10"
		   x="10"
		   y="10"
		   rx="8"
		   ry="8"
		   style="stroke:red;stroke-width:4;fill: transparent;" />
	<g id="MovingPieces" transform="translate(0,0)">
		<rect 
		   width="576"
		   height="1216"
		   x="0"
		   y="0"
		   style="fill: black" />
		<g id="Piece" transform="translate(0,0) rotate(0) ">
			<use transform=" translate(-64,0) scale(1)" xlink:href="#BlueRect"/>
			<use transform=" translate(0,0) scale(1)" xlink:href="#BlueRect"/>
			<use transform=" translate(64,0) scale(1)" xlink:href="#BlueRect"/>
			<use transform=" translate(64,64) scale(1)" xlink:href="#BlueRect"/>
		</g>
	</g>
	
	<g id="Next" transform="translate(850,150)" >
		<rect 
			width="270"
			height="270"
			x="-135"
			y="-135"
			rx="8"
			ry="8"
			style="stroke:red;stroke-width:4;fill: transparent;" />
			  
	</g>
	
	

	<script type="text/javascript" xlink:href="Main.js"/> 
</svg>
